<svg width="32" height="32" viewBox="0 0 32 32" fill="none" xmlns="http://www.w3.org/2000/svg">
<g clip-path="url(#clip0_529_916)">
<path d="M16 9.62793C15.9782 9.62793 15.9566 9.63225 15.9364 9.64064C15.9163 9.64903 15.898 9.66133 15.8826 9.67683C15.8672 9.69232 15.8551 9.7107 15.8469 9.73092C15.8386 9.75113 15.8345 9.77277 15.8347 9.7946C15.8347 9.8388 15.8522 9.88119 15.8835 9.91245C15.9147 9.9437 15.9571 9.96126 16.0013 9.96126C16.0455 9.96126 16.0879 9.9437 16.1192 9.91245C16.1504 9.88119 16.168 9.8388 16.168 9.7946C16.1673 9.75038 16.1493 9.70819 16.1179 9.67704C16.0865 9.6459 16.0442 9.62827 16 9.62793" stroke="#121317" stroke-width="1.5" stroke-linecap="round" stroke-linejoin="round"/>
<path d="M27.9627 13.7772H4.03737C3.94499 13.7774 3.85347 13.7594 3.76807 13.7241C3.68266 13.6889 3.60504 13.6372 3.53965 13.5719C3.47426 13.5066 3.42238 13.4291 3.38699 13.3438C3.35159 13.2584 3.33337 13.167 3.33337 13.0746V10.4399C3.33359 10.1602 3.42177 9.88761 3.58544 9.66077C3.74911 9.43393 3.97998 9.26431 4.24537 9.17591L15.5547 5.40525C15.8438 5.30925 16.1562 5.30925 16.4454 5.40525L27.7547 9.17591C28.0201 9.26431 28.251 9.43393 28.4146 9.66077C28.5783 9.88761 28.6665 10.1602 28.6667 10.4399V13.0746C28.6667 13.167 28.6485 13.2584 28.6131 13.3438C28.5777 13.4291 28.5258 13.5066 28.4604 13.5719C28.395 13.6372 28.3174 13.6889 28.232 13.7241C28.1466 13.7594 28.0551 13.7774 27.9627 13.7772V13.7772Z" stroke="#121317" stroke-width="1.5" stroke-linecap="round" stroke-linejoin="round"/>
<path d="M5.33337 24V13.7773" stroke="#121317" stroke-width="1.5" stroke-linecap="round" stroke-linejoin="round"/>
<path d="M26.6667 13.7773V24" stroke="#121317" stroke-width="1.5" stroke-linecap="round" stroke-linejoin="round"/>
<path d="M10.6667 13.7773V24" stroke="#121317" stroke-width="1.5" stroke-linecap="round" stroke-linejoin="round"/>
<path d="M16 13.7773V24" stroke="#121317" stroke-width="1.5" stroke-linecap="round" stroke-linejoin="round"/>
<path d="M21.3334 13.7773V24" stroke="#121317" stroke-width="1.5" stroke-linecap="round" stroke-linejoin="round"/>
<path d="M27.176 24H4.82402C4.57647 24.0001 4.33385 24.0692 4.12332 24.1994C3.91279 24.3296 3.74267 24.5159 3.63202 24.7373L2.80802 26.3853C2.71497 26.5702 2.66656 26.7744 2.66669 26.9813V28H29.3334V26.9813C29.3335 26.7744 29.2851 26.5702 29.192 26.3853L28.368 24.7373C28.2574 24.5159 28.0872 24.3296 27.8767 24.1994C27.6662 24.0692 27.4236 24.0001 27.176 24Z" stroke="#121317" stroke-width="1.5" stroke-linecap="round" stroke-linejoin="round"/>
<path d="M30.6666 28H1.33331" stroke="#121317" stroke-width="1.5" stroke-linecap="round" stroke-linejoin="round"/>
</g>
<defs>
<clipPath id="clip0_529_916">
<rect width="32" height="32" fill="white"/>
</clipPath>
</defs>
</svg>
