<svg width="26" height="24" viewBox="0 0 26 24" fill="none" xmlns="http://www.w3.org/2000/svg">
<path d="M19.6667 20V11.9867C19.6667 11.2795 19.3857 10.6012 18.8856 10.1011C18.3855 9.601 17.7073 9.32005 17 9.32005H3.65334L3.64001 9.31871C2.16001 9.30538 0.973343 10.5054 0.973343 11.972C0.96001 11.972 0.96001 11.972 0.973343 11.972V19.972H0.96001C0.946677 21.4387 2.14668 22.6254 3.61334 22.6254V22.612H16.9333V22.6107C18.4 22.5974 19.5867 21.4107 19.6 19.9307L19.6667 20Z" stroke="#121317" stroke-width="1.5" stroke-linecap="round" stroke-linejoin="round"/>
<path d="M1 14.7734H19.6667" stroke="#121317" stroke-width="1.5" stroke-linecap="round" stroke-linejoin="round"/>
<path d="M5.26666 9.33344L6.88 3.30677V3.29344C7.25333 1.86677 8.70666 1.02677 10.1333 1.40011L23.0133 4.85344L23 4.84011C24.4133 5.21344 25.2533 6.66677 24.88 8.09344H24.8667L22.7867 15.8134V15.8001C22.606 16.466 22.1749 17.0363 21.5834 17.3916C20.992 17.747 20.2861 17.8599 19.6133 17.7068" stroke="#121317" stroke-width="1.5" stroke-linecap="round" stroke-linejoin="round"/>
</svg>
