<svg width="14" height="14" viewBox="0 0 14 14" fill="none" xmlns="http://www.w3.org/2000/svg">
<path d="M7.00004 0.333252C3.33337 0.333252 0.333374 3.33325 0.333374 6.99992C0.333374 10.6666 3.33337 13.6666 7.00004 13.6666C10.6667 13.6666 13.6667 10.6666 13.6667 6.99992C13.6667 3.33325 10.6667 0.333252 7.00004 0.333252ZM9.80004 5.86659L6.60004 9.06659C6.33337 9.33325 5.93337 9.33325 5.66671 9.06659L4.20004 7.59992C3.93337 7.33325 3.93337 6.93325 4.20004 6.66659C4.46671 6.39992 4.86671 6.39992 5.13337 6.66659L6.13337 7.66659L8.86671 4.93325C9.13337 4.66659 9.53337 4.66659 9.80004 4.93325C10.0667 5.19992 10.0667 5.59992 9.80004 5.86659Z" fill="#0DACAF"/>
</svg>
