<svg width="26" height="26" viewBox="0 0 26 26" fill="none" xmlns="http://www.w3.org/2000/svg">
<path d="M13 0C11.0227 0 9.41382 1.6093 9.41382 3.58619C9.41382 5.56308 11.0227 7.17239 13 7.17239C14.9774 7.17239 16.5862 5.56398 16.5862 3.58619C16.5862 1.60841 14.9774 0 13 0ZM13 6.27584C11.5167 6.27584 10.3104 5.06998 10.3104 3.58619C10.3104 2.10241 11.5167 0.896548 13 0.896548C14.4834 0.896548 15.6897 2.1033 15.6897 3.58619C15.6897 5.06908 14.4834 6.27584 13 6.27584Z" fill="white"/>
<path d="M3.58664 0C1.60929 0 0.000427246 1.6093 0.000427246 3.58619C0.000427246 5.56308 1.60929 7.17239 3.58664 7.17239C5.56398 7.17239 7.17284 5.56398 7.17284 3.58619C7.17284 1.60841 5.56398 0 3.58664 0ZM3.58664 6.27584C2.10329 6.27584 0.896979 5.06998 0.896979 3.58619C0.896979 2.10241 2.10329 0.896548 3.58664 0.896548C5.06998 0.896548 6.27629 2.1033 6.27629 3.58619C6.27629 5.06908 5.06998 6.27584 3.58664 6.27584Z" fill="white"/>
<path d="M22.4133 0C20.436 0 18.8271 1.6093 18.8271 3.58619C18.8271 5.56308 20.436 7.17239 22.4133 7.17239C24.3906 7.17239 25.9995 5.56398 25.9995 3.58619C25.9995 1.60841 24.3906 0 22.4133 0ZM22.4133 6.27584C20.93 6.27584 19.7236 5.06998 19.7236 3.58619C19.7236 2.10241 20.93 0.896548 22.4133 0.896548C23.8966 0.896548 25.103 2.1033 25.103 3.58619C25.103 5.06908 23.8966 6.27584 22.4133 6.27584Z" fill="white"/>
<path d="M13 9.41382C11.0227 9.41382 9.41382 11.0227 9.41382 13C9.41382 14.9773 11.0227 16.5862 13 16.5862C14.9774 16.5862 16.5862 14.9773 16.5862 13C16.5862 11.0227 14.9774 9.41382 13 9.41382ZM13 15.6897C11.5167 15.6897 10.3104 14.4834 10.3104 13C10.3104 11.5167 11.5167 10.3104 13 10.3104C14.4834 10.3104 15.6897 11.5167 15.6897 13C15.6897 14.4834 14.4834 15.6897 13 15.6897Z" fill="white"/>
<path d="M3.58664 9.41382C1.60929 9.41382 0.000427246 11.0227 0.000427246 13C0.000427246 14.9773 1.60929 16.5862 3.58664 16.5862C5.56398 16.5862 7.17284 14.9773 7.17284 13C7.17284 11.0227 5.56398 9.41382 3.58664 9.41382ZM3.58664 15.6897C2.10329 15.6897 0.896979 14.4834 0.896979 13C0.896979 11.5167 2.10329 10.3104 3.58664 10.3104C5.06998 10.3104 6.27629 11.5167 6.27629 13C6.27629 14.4834 5.06998 15.6897 3.58664 15.6897Z" fill="white"/>
<path d="M22.4133 9.41382C20.436 9.41382 18.8271 11.0227 18.8271 13C18.8271 14.9773 20.436 16.5862 22.4133 16.5862C24.3906 16.5862 25.9995 14.9773 25.9995 13C25.9995 11.0227 24.3906 9.41382 22.4133 9.41382ZM22.4133 15.6897C20.93 15.6897 19.7236 14.4834 19.7236 13C19.7236 11.5167 20.93 10.3104 22.4133 10.3104C23.8966 10.3104 25.103 11.5167 25.103 13C25.103 14.4834 23.8966 15.6897 22.4133 15.6897Z" fill="white"/>
<path d="M13 18.8276C11.0227 18.8276 9.41382 20.436 9.41382 22.4138C9.41382 24.3916 11.0227 26 13 26C14.9774 26 16.5862 24.3907 16.5862 22.4138C16.5862 20.4369 14.9774 18.8276 13 18.8276ZM13 25.1035C11.5167 25.1035 10.3104 23.8967 10.3104 22.4138C10.3104 20.9309 11.5167 19.7242 13 19.7242C14.4834 19.7242 15.6897 20.93 15.6897 22.4138C15.6897 23.8976 14.4834 25.1035 13 25.1035Z" fill="white"/>
<path d="M3.58664 18.8276C1.60929 18.8276 0.000427246 20.436 0.000427246 22.4138C0.000427246 24.3916 1.60929 26 3.58664 26C5.56398 26 7.17284 24.3907 7.17284 22.4138C7.17284 20.4369 5.56398 18.8276 3.58664 18.8276ZM3.58664 25.1035C2.10329 25.1035 0.896979 23.8967 0.896979 22.4138C0.896979 20.9309 2.10329 19.7242 3.58664 19.7242C5.06998 19.7242 6.27629 20.93 6.27629 22.4138C6.27629 23.8976 5.06998 25.1035 3.58664 25.1035Z" fill="white"/>
<path d="M22.4133 18.8276C20.436 18.8276 18.8271 20.436 18.8271 22.4138C18.8271 24.3916 20.436 26 22.4133 26C24.3906 26 25.9995 24.3907 25.9995 22.4138C25.9995 20.4369 24.3906 18.8276 22.4133 18.8276ZM22.4133 25.1035C20.93 25.1035 19.7236 23.8967 19.7236 22.4138C19.7236 20.9309 20.93 19.7242 22.4133 19.7242C23.8966 19.7242 25.103 20.93 25.103 22.4138C25.103 23.8976 23.8966 25.1035 22.4133 25.1035Z" fill="white"/>
</svg>
