<svg width="18" height="18" viewBox="0 0 18 18" fill="none" xmlns="http://www.w3.org/2000/svg">
<path d="M10.0305 0.378144C9.752 0.135306 9.38327 0 9 0C8.61673 0 8.248 0.135306 7.9695 0.378144L0.703501 6.71139C0.481023 6.90555 0.303873 7.13957 0.182905 7.3991C0.0619366 7.65862 -0.000302358 7.9382 1.10438e-06 8.22069V15.9263C0.000398756 16.4764 0.237627 17.0038 0.659541 17.3927C1.08145 17.7816 1.65352 18 2.25 18H4.5C5.09674 18 5.66903 17.7814 6.09099 17.3922C6.51295 17.0031 6.75 16.4752 6.75 15.9249V12.4664C6.75 12.2829 6.82902 12.107 6.96967 11.9773C7.11032 11.8475 7.30109 11.7747 7.5 11.7747H10.5C10.6989 11.7747 10.8897 11.8475 11.0303 11.9773C11.171 12.107 11.25 12.2829 11.25 12.4664V15.9249C11.25 16.4752 11.4871 17.0031 11.909 17.3922C12.331 17.7814 12.9033 18 13.5 18H15.75C16.3467 18 16.919 17.7814 17.341 17.3922C17.7629 17.0031 18 16.4752 18 15.9249V8.2193C17.9999 7.93694 17.9373 7.65757 17.8161 7.39829C17.6949 7.13901 17.5176 6.90527 17.295 6.71139L10.0305 0.378144Z" fill="#0DACAF"/>
</svg>
