<svg width="20" height="22" viewBox="0 0 20 22" fill="none" xmlns="http://www.w3.org/2000/svg">
<path d="M9.0388 20.3322C5.31337 20.3322 3.44972 20.3322 2.2916 19.2384C1.1344 18.1456 1.1344 16.3856 1.1344 12.8664V9.13351C1.1344 5.61432 1.1344 3.85427 2.2916 2.76146C3.44972 1.66772 5.31337 1.66772 9.0388 1.66772H10.028C13.7544 1.66772 15.6171 1.66772 16.7752 2.76146C17.9324 3.85427 17.9324 5.61432 17.9324 9.13351M9.06679 20.3322H10.4666M5.80051 6.33384H13.2663M5.80051 11H10.4666" stroke="#C3C3C3" stroke-width="1.5" stroke-linecap="round" stroke-linejoin="round"/>
<path d="M14.6661 17.1498L13.8243 20.0923C13.8158 20.1256 13.8167 20.1607 13.8269 20.1936C13.8372 20.2265 13.8563 20.2559 13.8821 20.2786C13.908 20.3013 13.9397 20.3164 13.9736 20.3222C14.0076 20.328 14.0424 20.3243 14.0744 20.3116L15.9269 19.5715C16.0161 19.5357 16.1157 19.5357 16.205 19.5715L18.0751 20.3181C18.1064 20.3306 18.1405 20.3344 18.1738 20.329C18.207 20.3237 18.2382 20.3095 18.2641 20.2879C18.2899 20.2662 18.3094 20.238 18.3205 20.2062C18.3316 20.1744 18.3339 20.1402 18.3271 20.1072L17.6141 17.0574M18.8656 14.7281C18.8643 13.9864 18.5688 13.2755 18.0439 12.7515C17.519 12.2274 16.8076 11.9331 16.0659 11.9331C14.5196 11.9331 13.2662 13.1846 13.2662 14.7281C13.2665 15.0955 13.3391 15.4592 13.4799 15.7985C13.6208 16.1378 13.8271 16.446 14.0871 16.7056C14.3471 16.9651 14.6556 17.1709 14.9952 17.3112C15.3347 17.4515 15.6985 17.5235 16.0659 17.5231C17.6123 17.5231 18.8656 16.2726 18.8656 14.7281Z" stroke="#C3C3C3" stroke-width="1.5" stroke-linecap="round" stroke-linejoin="round"/>
</svg>
