<svg width="32" height="32" viewBox="0 0 32 32" fill="none" xmlns="http://www.w3.org/2000/svg">
<g clip-path="url(#clip0_529_907)">
<path d="M13.044 17.3293H16.7173C18.4686 17.3046 20.1397 16.5915 21.3694 15.3443C22.599 14.0971 23.2884 12.4161 23.2884 10.6647C23.2884 8.91324 22.599 7.23219 21.3694 5.98501C20.1397 4.73784 18.4686 4.02477 16.7173 4H9.61067C9.29304 3.99992 8.98582 4.11324 8.74431 4.31954C8.50281 4.52585 8.34288 4.81159 8.29333 5.12533L5.34933 23.792C5.31927 23.9824 5.33083 24.177 5.38321 24.3624C5.43559 24.5479 5.52755 24.7198 5.65276 24.8663C5.77797 25.0128 5.93345 25.1304 6.10848 25.211C6.28352 25.2917 6.47395 25.3334 6.66666 25.3333H10.4613L11.5173 18.6347C11.5748 18.271 11.7601 17.9397 12.0399 17.7005C12.3198 17.4612 12.6758 17.3296 13.044 17.3293V17.3293Z" stroke="#121317" stroke-width="1.5" stroke-linecap="round" stroke-linejoin="round"/>
<path d="M23.2893 9.55078C24.468 10.2188 25.415 11.2304 26.0037 12.4507C26.5924 13.671 26.7948 15.0418 26.584 16.3801C26.3366 17.9485 25.5374 19.377 24.3304 20.4085C23.1233 21.44 21.5877 22.0068 20 22.0068H20.028H16.5226L15.7546 26.8734C15.7056 27.1874 15.5458 27.4735 15.3042 27.6799C15.0626 27.8863 14.7551 27.9994 14.4373 27.9988L10.8213 27.9961C10.725 27.9961 10.6297 27.9753 10.5422 27.935C10.4547 27.8946 10.377 27.8358 10.3144 27.7626C10.2518 27.6893 10.2058 27.6034 10.1796 27.5107C10.1534 27.4179 10.1476 27.3206 10.1626 27.2254L10.4613 25.3334" stroke="#121317" stroke-width="1.5" stroke-linecap="round" stroke-linejoin="round"/>
</g>
<defs>
<clipPath id="clip0_529_907">
<rect width="32" height="32" fill="white"/>
</clipPath>
</defs>
</svg>
