<svg width="19" height="20" viewBox="0 0 19 20" fill="none" xmlns="http://www.w3.org/2000/svg">
<path d="M5.25 14.5V8.875M9.5 14.5V5.5M13.75 14.5V12.25M15.875 1H3.125C2.56141 1 2.02091 1.23705 1.6224 1.65901C1.22388 2.08097 1 2.65326 1 3.25V16.75C1 17.3467 1.22388 17.919 1.6224 18.341C2.02091 18.7629 2.56141 19 3.125 19H15.875C16.4386 19 16.9791 18.7629 17.3776 18.341C17.7761 17.919 18 17.3467 18 16.75V3.25C18 2.65326 17.7761 2.08097 17.3776 1.65901C16.9791 1.23705 16.4386 1 15.875 1Z" stroke="#C3C3C3" stroke-width="1.5" stroke-linecap="round" stroke-linejoin="round"/>
</svg>
