<svg width="152" height="152" viewBox="0 0 152 152" fill="none" xmlns="http://www.w3.org/2000/svg">
<path fill-rule="evenodd" clip-rule="evenodd" d="M76 98.75C63.4355 98.75 53.25 88.5645 53.25 76C53.25 63.4355 63.4355 53.25 76 53.25C88.5645 53.25 98.75 63.4355 98.75 76C98.75 88.5645 88.5645 98.75 76 98.75ZM56.75 76C56.75 86.6315 65.3685 95.25 76 95.25C86.6315 95.25 95.25 86.6315 95.25 76C95.25 65.3685 86.6315 56.75 76 56.75C65.3685 56.75 56.75 65.3685 56.75 76Z" fill="#0DACAF"/>
<path fill-rule="evenodd" clip-rule="evenodd" d="M84.8208 70.0959C85.5042 70.7793 85.5042 71.8874 84.8208 72.5708L75.4874 81.9041C74.804 82.5875 73.696 82.5875 73.0126 81.9041L68.3459 77.2374C67.6625 76.554 67.6625 75.446 68.3459 74.7626C69.0293 74.0792 70.1373 74.0792 70.8208 74.7626L74.25 78.1918L82.3459 70.0959C83.0293 69.4125 84.1373 69.4125 84.8208 70.0959Z" fill="#0DACAF"/>
<circle cx="125.5" cy="56.5" r="5.5" fill="#0DACAF"/>
<circle cx="32" cy="95" r="3" fill="#0DACAF"/>
<circle cx="108" cy="114" r="2" fill="#0DACAF"/>
<circle cx="102" cy="27" r="2" fill="#0DACAF"/>
<circle cx="47" cy="38" r="2" fill="#0DACAF"/>
<circle cx="1" cy="1" r="1" transform="matrix(1 0 0 -1 144 101)" fill="#0DACAF"/>
<circle cx="1" cy="1" r="1" transform="matrix(1 0 0 -1 48 124)" fill="#0DACAF"/>
<circle cx="1" cy="1" r="1" transform="matrix(1 0 0 -1 9 66)" fill="#0DACAF"/>
</svg>
